<?xml version="1.0" standalone="no"?><!DOCTYPE svg PUBLIC "-//W3C//DTD SVG 1.1//EN" "http://www.w3.org/Graphics/SVG/1.1/DTD/svg11.dtd"><svg t="1741462705812" class="icon" viewBox="85 85 854 854" version="1.1" xmlns="http://www.w3.org/2000/svg" p-id="1601" xmlns:xlink="http://www.w3.org/1999/xlink" width="200" height="200"><path d="M313.301333 446.976l340.48-109.696a15.146667 15.146667 0 0 1 18.986667 18.773333l-104.448 349.44a15.146667 15.146667 0 0 1-29.098667 0l-49.493333-175.018666a15.189333 15.189333 0 0 0-10.666667-10.496l-164.992-43.946667a15.146667 15.146667 0 0 1-0.768-29.013333z" fill="#FFFFFF" p-id="1602"></path><path d="M512 85.333333a426.666667 426.666667 0 1 0 426.666667 426.624C938.24 276.48 747.477333 85.717333 512 85.333333z" fill="#E84343" p-id="1603"></path><path d="M645.12 309.973333L304.597333 419.84A43.648 43.648 0 0 0 306.773333 503.466667l157.653334 41.941333 47.957333 167.424c5.248 18.688 22.314667 31.573333 41.728 31.616 19.328 0.128 36.394667-12.629333 41.813333-31.146667l104.490667-349.44A43.648 43.648 0 0 0 645.12 309.76v0.170667z" fill="#FFFFFF" p-id="1604"></path></svg>